# xmcd CD database file
#
# Track frame offsets:
#	150
#	11917
#	24142
#	30365
#	46397
#	48967
#	58945
#	67095
#	76700
#	86135
#	99692
#	109570
#	118442
#	127610
#	131265
#	143022
#	155292
#	161552
#	177592
#	180430
#	190430
#	198622
#	208250
#	217697
#	231227
#	241097
#	250025
#	259222
#
# Disc length: 3502 seconds
#
# Revision: 2
# Processed by: cddbd v1.5.2PL0 Copyright (c) Steve Scherf et al.
# Submitted via: CDex 1.51
#
DISCID=7f0dac1c
DTITLE=Les Colibris - Pose une Étoile  (Nathalie Lemoye - Chants religieux pour les 8-12 ans)
DYEAR=1998
DGENRE=Chants
TTITLE0=Écoute et vois
TTITLE1=Je ne sais pas te parler
TTITLE2=Dieu, ton nom est tout simple
TTITLE3=Écoute la voix des enfants
TTITLE4=Alleluia
TTITLE5=Une fleure est née sur ton chemin
TTITLE6=Tu choisis de donner ta vie
TTITLE7=Il y a des enfants qui pleurent
TTITLE8=Je veux revenir vers toi
TTITLE9=Grain de soleil
TTITLE10=Change quelque chose dans ta vie
TTITLE11=Mes mains se lèvent
TTITLE12=Allez par toute la terre
TTITLE13=Alleluia  (Acclamation à l'Évangile)
TTITLE14=Play-Back - Écoute et vois
TTITLE15=Play-Back - Je ne sais pas te parler
TTITLE16=Play-Back - Dieu, ton nom est tout simple
TTITLE17=Play-Back - Écoute la voix des enfants
TTITLE18=Play-Back - Alleluia
TTITLE19=Play-Back - Une fleure est née sur ton chemin
TTITLE20=Play-Back - Tu choisis de donner ta vie
TTITLE21=Play-Back - Il y a des enfants qui pleurent
TTITLE22=Play-Back - Je veux revenir vers toi
TTITLE23=Play-Back - Grain de soleil
TTITLE24=Play-Back - Change quelque chose dans ta vie
TTITLE25=Play-Back - Mes mains se lèvent
TTITLE26=Play-Back - Allez par toute la terre
TTITLE27=Play-Back - Alleluia  (Acclamation à l'Évangile)
EXTD=YEAR: 1998
EXTT0=
EXTT1=
EXTT2=
EXTT3=
EXTT4=
EXTT5=
EXTT6=
EXTT7=
EXTT8=
EXTT9=
EXTT10=
EXTT11=
EXTT12=
EXTT13=
EXTT14=
EXTT15=
EXTT16=
EXTT17=
EXTT18=
EXTT19=
EXTT20=
EXTT21=
EXTT22=
EXTT23=
EXTT24=
EXTT25=
EXTT26=
EXTT27=
PLAYORDER=
